<svg width="18" height="18" viewBox="0 0 18 18" fill="none" xmlns="http://www.w3.org/2000/svg">
<g id="Iconly/Bulk/Setting">
<g id="Setting">
<path id="Path" d="M9.00898 11.1226C7.80563 11.1226 6.83221 10.1851 6.83221 9.00757C6.83221 7.83007 7.80563 6.88507 9.00898 6.88507C10.2123 6.88507 11.1628 7.83007 11.1628 9.00757C11.1628 10.1851 10.2123 11.1226 9.00898 11.1226" fill="#A8A8A8"/>
<path id="Path_2" opacity="0.4" d="M15.9225 10.7776C15.7769 10.5526 15.57 10.3276 15.3017 10.1851C15.0871 10.0801 14.9491 9.90758 14.8265 9.70508C14.4356 9.06008 14.6655 8.21258 15.317 7.83008C16.0835 7.40258 16.3288 6.45008 15.8842 5.70758L15.3707 4.82258C14.9338 4.08008 13.9757 3.81758 13.2169 4.25258C12.5424 4.61258 11.6763 4.37258 11.2854 3.73508C11.1628 3.52508 11.0938 3.30008 11.1091 3.07508C11.1321 2.78258 11.0401 2.50508 10.9022 2.28008C10.6186 1.81508 10.105 1.50008 9.53786 1.50008H8.45714C7.89762 1.51508 7.38408 1.81508 7.10049 2.28008C6.95486 2.50508 6.87055 2.78258 6.88588 3.07508C6.90121 3.30008 6.83223 3.52508 6.70959 3.73508C6.31869 4.37258 5.45258 4.61258 4.78576 4.25258C4.01929 3.81758 3.06887 4.08008 2.62432 4.82258L2.11078 5.70758C1.6739 6.45008 1.91917 7.40258 2.67797 7.83008C3.32947 8.21258 3.55941 9.06008 3.17617 9.70508C3.04587 9.90758 2.90791 10.0801 2.6933 10.1851C2.4327 10.3276 2.20276 10.5526 2.08012 10.7776C1.79653 11.2426 1.81186 11.8276 2.09545 12.3151L2.62432 13.2151C2.90791 13.6951 3.43677 13.9951 3.98863 13.9951C4.24923 13.9951 4.55582 13.9201 4.80109 13.7701C4.9927 13.6426 5.22264 13.5976 5.47558 13.5976C6.23438 13.5976 6.87055 14.2201 6.88588 14.9626C6.88588 15.8251 7.59103 16.5001 8.48013 16.5001H9.52253C10.404 16.5001 11.1091 15.8251 11.1091 14.9626C11.1321 14.2201 11.7683 13.5976 12.5271 13.5976C12.7724 13.5976 13.0023 13.6426 13.2016 13.7701C13.4468 13.9201 13.7458 13.9951 14.014 13.9951C14.5582 13.9951 15.0871 13.6951 15.3707 13.2151L15.9072 12.3151C16.1831 11.8126 16.2061 11.2426 15.9225 10.7776" fill="#A8A8A8"/>
</g>
</g>
</svg>
