<svg width="24" height="24" viewBox="0 0 24 24" fill="none" xmlns="http://www.w3.org/2000/svg">
<path opacity="0.4" d="M16.0841 1.99991L7.91612 1.99991C4.37712 1.99991 2.00012 4.27591 2.00012 7.66491L2.00012 16.3349C2.00012 19.7239 4.37712 21.9999 7.91612 21.9999L16.0841 21.9999C19.6221 21.9999 22.0001 19.7229 22.0001 16.3339L22.0001 7.66491C22.0001 4.27591 19.6221 1.99991 16.0841 1.99991Z" fill="url(#paint0_linear_7_335)"/>
<path d="M11.1445 7.7206L7.37954 11.4686C7.09654 11.7506 7.09654 12.2496 7.37954 12.5326L11.1445 16.2806C11.4385 16.5726 11.9135 16.5716 12.2055 16.2776C12.4975 15.9836 12.4975 15.5096 12.2035 15.2166L9.72654 12.7496H16.0815C16.4965 12.7496 16.8315 12.4136 16.8315 11.9996C16.8315 11.5856 16.4965 11.2496 16.0815 11.2496L9.72654 11.2496L12.2035 8.7836C12.3505 8.6366 12.4235 8.4446 12.4235 8.2516C12.4235 8.0606 12.3505 7.8686 12.2055 7.7226C11.9135 7.4296 11.4385 7.4286 11.1445 7.7206Z" fill="url(#paint1_linear_7_335)"/>
<defs>
<linearGradient id="paint0_linear_7_335" x1="27.1317" y1="0.550634" x2="-3.72383" y2="16.9336" gradientUnits="userSpaceOnUse">
<stop stop-color="#FFC881"/>
<stop offset="1" stop-color="#DA8517"/>
</linearGradient>
<linearGradient id="paint1_linear_7_335" x1="19.3112" y1="6.8503" x2="4.88958" y2="15.0758" gradientUnits="userSpaceOnUse">
<stop stop-color="#FFC881"/>
<stop offset="1" stop-color="#DA8517"/>
</linearGradient>
</defs>
</svg>
