<svg width="24" height="24" viewBox="0 0 24 24" fill="none" xmlns="http://www.w3.org/2000/svg">
<path opacity="0.4" d="M7.91588 22.0001H16.0839C19.6229 22.0001 21.9999 19.7241 21.9999 16.3351V7.66509C21.9999 4.27609 19.6229 2.00009 16.0839 2.00009H7.91588C4.37788 2.00009 1.99988 4.27709 1.99988 7.66609L1.99988 16.3351C1.99988 19.7241 4.37788 22.0001 7.91588 22.0001Z" fill="url(#paint0_linear_7_333)"/>
<path d="M12.8555 16.2794L16.6205 12.5314C16.9035 12.2494 16.9035 11.7504 16.6205 11.4674L12.8555 7.7194C12.5615 7.4274 12.0865 7.4284 11.7945 7.7224C11.5025 8.0164 11.5025 8.4904 11.7965 8.7834L14.2735 11.2504H7.91846C7.50346 11.2504 7.16846 11.5864 7.16846 12.0004C7.16846 12.4144 7.50346 12.7504 7.91846 12.7504H14.2735L11.7965 15.2164C11.6495 15.3634 11.5765 15.5554 11.5765 15.7484C11.5765 15.9394 11.6495 16.1314 11.7945 16.2774C12.0865 16.5704 12.5615 16.5714 12.8555 16.2794Z" fill="url(#paint1_linear_7_333)"/>
<defs>
<linearGradient id="paint0_linear_7_333" x1="-3.1317" y1="23.4494" x2="27.7238" y2="7.06643" gradientUnits="userSpaceOnUse">
<stop stop-color="#FFC881"/>
<stop offset="1" stop-color="#DA8517"/>
</linearGradient>
<linearGradient id="paint1_linear_7_333" x1="4.68881" y1="17.1497" x2="19.1104" y2="8.92423" gradientUnits="userSpaceOnUse">
<stop stop-color="#FFC881"/>
<stop offset="1" stop-color="#DA8517"/>
</linearGradient>
</defs>
</svg>
