<svg width="22" height="22" viewBox="0 0 22 22" fill="none" xmlns="http://www.w3.org/2000/svg">
<path d="M14.7713 14.7712C12.6885 16.854 9.3116 16.854 7.2288 14.7712M14.7713 14.7712C16.8541 12.6884 16.8541 9.31155 14.7713 7.22875M14.7713 14.7712L17.5997 17.5997M7.2288 14.7712C5.14601 12.6884 5.14601 9.31155 7.2288 7.22875M7.2288 14.7712L4.40042 17.5997M14.7713 7.22875C12.6885 5.14596 9.3116 5.14596 7.2288 7.22875M14.7713 7.22875L17.5997 4.40033M7.2288 7.22875L4.40042 4.40033M17.5997 17.5997C13.9549 21.2445 8.04531 21.2445 4.40042 17.5997M17.5997 17.5997C21.2446 13.9548 21.2446 8.04522 17.5997 4.40033M4.40042 17.5997C0.755525 13.9548 0.755525 8.04522 4.40042 4.40033M17.5997 4.40033C13.9549 0.755434 8.04531 0.755433 4.40042 4.40033" stroke="url(#paint0_linear_16_912)" stroke-width="1.5"/>
<defs>
<linearGradient id="paint0_linear_16_912" x1="0.314092" y1="-3.12282" x2="15.6048" y2="25.6757" gradientUnits="userSpaceOnUse">
<stop stop-color="#FFC881"/>
<stop offset="1" stop-color="#DA8517"/>
</linearGradient>
</defs>
</svg>
